<svg xmlns="http://www.w3.org/2000/svg" width="400" height="200" viewBox="0 0 400 200">
  <defs>
    <linearGradient id="g" x1="0" y1="0" x2="1" y2="1">
      <stop offset="0%" stop-color="#051520"/>
      <stop offset="100%" stop-color="#0288D1" stop-opacity="0.25"/>
    </linearGradient>
  </defs>
  <rect width="400" height="200" fill="url(#g)"/>
  <rect x="0" y="196" width="400" height="4" fill="#0288D1" opacity="0.8"/>
  <g transform="translate(165, 20) scale(3)" fill="#0288D1" opacity="0.7">
    <path d="M2 16c1-1 2.5-2 4-2s3 1 4 2 2.5 2 4 2 3-1 4-2 2.5-2 4-2v4H2v-4zm0-4c1-1 2.5-2 4-2s3 1 4 2 2.5 2 4 2 3-1 4-2 2.5-2 4-2v4c-1.5 0-3 1-4 2s-2.5 2-4 2-3-1-4-2-2.5-2-4-2v-4zm0-4c1-1 2.5-2 4-2s3 1 4 2 2.5 2 4 2 3-1 4-2 2.5-2 4-2v4c-1.5 0-3 1-4 2s-2.5 2-4 2-3-1-4-2-2.5-2-4-2V8z"/>
  </g>
  <rect width="400" height="200" fill="url(#g)" opacity="0.3"/>
  <rect x="0" y="120" width="400" height="80" fill="#051520" opacity="0.6"/>
    <text x="200" y="145" text-anchor="middle" font-family="Rajdhani, sans-serif" font-size="22" font-weight="600" fill="#fff" opacity="0.95">Coastal &</text>
    <text x="200" y="173" text-anchor="middle" font-family="Rajdhani, sans-serif" font-size="22" font-weight="600" fill="#fff" opacity="0.95">Sea Maps</text>
</svg>