<svg xmlns="http://www.w3.org/2000/svg" width="400" height="200" viewBox="0 0 400 200">
  <defs>
    <linearGradient id="g" x1="0" y1="0" x2="1" y2="1">
      <stop offset="0%" stop-color="#1a0505"/>
      <stop offset="100%" stop-color="#D32F2F" stop-opacity="0.25"/>
    </linearGradient>
  </defs>
  <rect width="400" height="200" fill="url(#g)"/>
  <rect x="0" y="196" width="400" height="4" fill="#D32F2F" opacity="0.8"/>
  <g transform="translate(165, 20) scale(3)" fill="#D32F2F" opacity="0.7">
    <path d="M19 3H5a2 2 0 00-2 2v14a2 2 0 002 2h14a2 2 0 002-2V5a2 2 0 00-2-2zM7.5 18a1.5 1.5 0 110-3 1.5 1.5 0 010 3zm0-9a1.5 1.5 0 110-3 1.5 1.5 0 010 3zM12 13.5a1.5 1.5 0 110-3 1.5 1.5 0 010 3zm4.5 4.5a1.5 1.5 0 110-3 1.5 1.5 0 010 3zm0-9a1.5 1.5 0 110-3 1.5 1.5 0 010 3z"/>
  </g>
  <rect width="400" height="200" fill="url(#g)" opacity="0.3"/>
  <rect x="0" y="120" width="400" height="80" fill="#1a0505" opacity="0.6"/>
    <text x="200" y="145" text-anchor="middle" font-family="Rajdhani, sans-serif" font-size="22" font-weight="600" fill="#fff" opacity="0.95">Dragon</text>
    <text x="200" y="173" text-anchor="middle" font-family="Rajdhani, sans-serif" font-size="22" font-weight="600" fill="#fff" opacity="0.95">Dice Roller</text>
</svg>