<svg xmlns="http://www.w3.org/2000/svg" width="400" height="200" viewBox="0 0 400 200">
  <defs>
    <linearGradient id="g" x1="0" y1="0" x2="1" y2="1">
      <stop offset="0%" stop-color="#1a0505"/>
      <stop offset="100%" stop-color="#8B0000" stop-opacity="0.25"/>
    </linearGradient>
  </defs>
  <rect width="400" height="200" fill="url(#g)"/>
  <rect x="0" y="196" width="400" height="4" fill="#8B0000" opacity="0.8"/>
  <g transform="translate(165, 20) scale(3)" fill="#8B0000" opacity="0.7">
    <path d="M12 2L2 7v10l10 5 10-5V7L12 2zm0 2.18l7.66 3.83L12 11.83 4.34 8.01 12 4.18zM4 9.04l7 3.5V20l-7-3.5V9.04zm9 10.96v-7.46l7-3.5V16.5l-7 3.5z"/>
  </g>
  <rect width="400" height="200" fill="url(#g)" opacity="0.3"/>
  <rect x="0" y="120" width="400" height="80" fill="#1a0505" opacity="0.6"/>
    <text x="200" y="145" text-anchor="middle" font-family="Rajdhani, sans-serif" font-size="22" font-weight="600" fill="#fff" opacity="0.95">Dungeon Map</text>
    <text x="200" y="173" text-anchor="middle" font-family="Rajdhani, sans-serif" font-size="22" font-weight="600" fill="#fff" opacity="0.95">Pack Vol. 1</text>
</svg>