<svg xmlns="http://www.w3.org/2000/svg" width="400" height="200" viewBox="0 0 400 200">
  <defs>
    <linearGradient id="g" x1="0" y1="0" x2="1" y2="1">
      <stop offset="0%" stop-color="#050f1a"/>
      <stop offset="100%" stop-color="#1565C0" stop-opacity="0.25"/>
    </linearGradient>
  </defs>
  <rect width="400" height="200" fill="url(#g)"/>
  <rect x="0" y="196" width="400" height="4" fill="#1565C0" opacity="0.8"/>
  <g transform="translate(165, 20) scale(3)" fill="#1565C0" opacity="0.7">
    <path d="M21 3H3a2 2 0 00-2 2v14a2 2 0 002 2h18a2 2 0 002-2V5a2 2 0 00-2-2zM5 17l3.5-4.5 2.5 3 3.5-4.5L19 17H5z"/>
  </g>
  <rect width="400" height="200" fill="url(#g)" opacity="0.3"/>
  <rect x="0" y="120" width="400" height="80" fill="#050f1a" opacity="0.6"/>
    <text x="200" y="145" text-anchor="middle" font-family="Rajdhani, sans-serif" font-size="22" font-weight="600" fill="#fff" opacity="0.95">Map Asset</text>
    <text x="200" y="173" text-anchor="middle" font-family="Rajdhani, sans-serif" font-size="22" font-weight="600" fill="#fff" opacity="0.95">Pack</text>
</svg>