<svg xmlns="http://www.w3.org/2000/svg" width="400" height="200" viewBox="0 0 400 200">
  <defs>
    <linearGradient id="g" x1="0" y1="0" x2="1" y2="1">
      <stop offset="0%" stop-color="#1a0505"/>
      <stop offset="100%" stop-color="#8B0000" stop-opacity="0.25"/>
    </linearGradient>
  </defs>
  <rect width="400" height="200" fill="url(#g)"/>
  <rect x="0" y="196" width="400" height="4" fill="#8B0000" opacity="0.8"/>
  <g transform="translate(165, 20) scale(3)" fill="#8B0000" opacity="0.7">
    <path d="M21 3H3a2 2 0 00-2 2v12a2 2 0 002 2h5v2h8v-2h5a2 2 0 002-2V5a2 2 0 00-2-2zm0 14H3V5h18v12z"/>
  </g>
  <rect width="400" height="200" fill="url(#g)" opacity="0.3"/>
  <rect x="0" y="120" width="400" height="80" fill="#1a0505" opacity="0.6"/>
    <text x="200" y="145" text-anchor="middle" font-family="Rajdhani, sans-serif" font-size="22" font-weight="600" fill="#fff" opacity="0.95">OBS Overlay</text>
    <text x="200" y="173" text-anchor="middle" font-family="Rajdhani, sans-serif" font-size="22" font-weight="600" fill="#fff" opacity="0.95">Pack</text>
</svg>