<svg xmlns="http://www.w3.org/2000/svg" width="400" height="200" viewBox="0 0 400 200">
  <defs>
    <linearGradient id="g" x1="0" y1="0" x2="1" y2="1">
      <stop offset="0%" stop-color="#0a1015"/>
      <stop offset="100%" stop-color="#546E7A" stop-opacity="0.25"/>
    </linearGradient>
  </defs>
  <rect width="400" height="200" fill="url(#g)"/>
  <rect x="0" y="196" width="400" height="4" fill="#546E7A" opacity="0.8"/>
  <g transform="translate(165, 20) scale(3)" fill="#546E7A" opacity="0.7">
    <path d="M20 6H12L10 4H4a2 2 0 00-2 2v12a2 2 0 002 2h16a2 2 0 002-2V8a2 2 0 00-2-2zm-8 7h-2v2H8v-2H6v-2h2V9h2v2h2v2z"/>
  </g>
  <rect width="400" height="200" fill="url(#g)" opacity="0.3"/>
  <rect x="0" y="120" width="400" height="80" fill="#0a1015" opacity="0.6"/>
    <text x="200" y="145" text-anchor="middle" font-family="Rajdhani, sans-serif" font-size="22" font-weight="600" fill="#fff" opacity="0.95">Resume &</text>
    <text x="200" y="173" text-anchor="middle" font-family="Rajdhani, sans-serif" font-size="22" font-weight="600" fill="#fff" opacity="0.95">CV Pack</text>
</svg>