<svg xmlns="http://www.w3.org/2000/svg" width="400" height="200" viewBox="0 0 400 200">
  <defs>
    <linearGradient id="g" x1="0" y1="0" x2="1" y2="1">
      <stop offset="0%" stop-color="#1a0520"/>
      <stop offset="100%" stop-color="#E040FB" stop-opacity="0.25"/>
    </linearGradient>
  </defs>
  <rect width="400" height="200" fill="url(#g)"/>
  <rect x="0" y="196" width="400" height="4" fill="#E040FB" opacity="0.8"/>
  <g transform="translate(165, 20) scale(3)" fill="#E040FB" opacity="0.7">
    <path d="M16.56 8.94L7.62 0 6.21 1.41l2.38 2.38-5.15 5.15a1.49 1.49 0 000 2.12l5.5 5.5a1.49 1.49 0 002.12 0l5.5-5.5a1.49 1.49 0 000-2.12zM5.21 10L10 5.21 14.79 10H5.21zM19 11.5s-2 2.17-2 3.5a2 2 0 004 0c0-1.33-2-3.5-2-3.5z"/>
  </g>
  <rect width="400" height="200" fill="url(#g)" opacity="0.3"/>
  <rect x="0" y="120" width="400" height="80" fill="#1a0520" opacity="0.6"/>
    <text x="200" y="145" text-anchor="middle" font-family="Rajdhani, sans-serif" font-size="22" font-weight="600" fill="#fff" opacity="0.95">Animated</text>
    <text x="200" y="173" text-anchor="middle" font-family="Rajdhani, sans-serif" font-size="22" font-weight="600" fill="#fff" opacity="0.95">Transitions</text>
</svg>