<svg xmlns="http://www.w3.org/2000/svg" width="400" height="200" viewBox="0 0 400 200">
  <defs>
    <linearGradient id="g" x1="0" y1="0" x2="1" y2="1">
      <stop offset="0%" stop-color="#051a1a"/>
      <stop offset="100%" stop-color="#26C6DA" stop-opacity="0.25"/>
    </linearGradient>
  </defs>
  <rect width="400" height="200" fill="url(#g)"/>
  <rect x="0" y="196" width="400" height="4" fill="#26C6DA" opacity="0.8"/>
  <g transform="translate(165, 20) scale(3)" fill="#26C6DA" opacity="0.7">
    <path d="M4 6h18V4H4a2 2 0 00-2 2v11H0v3h14v-3H4V6zm19 2h-6a1 1 0 00-1 1v10a1 1 0 001 1h6a1 1 0 001-1V9a1 1 0 00-1-1zm-1 9h-4v-7h4v7z"/>
  </g>
  <rect width="400" height="200" fill="url(#g)" opacity="0.3"/>
  <rect x="0" y="120" width="400" height="80" fill="#051a1a" opacity="0.6"/>
    <text x="200" y="145" text-anchor="middle" font-family="Rajdhani, sans-serif" font-size="22" font-weight="600" fill="#fff" opacity="0.95">Stream Info</text>
    <text x="200" y="173" text-anchor="middle" font-family="Rajdhani, sans-serif" font-size="22" font-weight="600" fill="#fff" opacity="0.95">Panels</text>
</svg>