<svg xmlns="http://www.w3.org/2000/svg" width="400" height="200" viewBox="0 0 400 200">
  <defs>
    <linearGradient id="g" x1="0" y1="0" x2="1" y2="1">
      <stop offset="0%" stop-color="#1a1005"/>
      <stop offset="100%" stop-color="#FF8F00" stop-opacity="0.25"/>
    </linearGradient>
  </defs>
  <rect width="400" height="200" fill="url(#g)"/>
  <rect x="0" y="196" width="400" height="4" fill="#FF8F00" opacity="0.8"/>
  <g transform="translate(165, 20) scale(3)" fill="#FF8F00" opacity="0.7">
    <path d="M2 20h20v2H2v-2zm2-2h2v-3h4v3h2V8l-5-3-5 3v10zm14 0h2V10l-3-1.5V4h-2v3.5L12 9v9h2v-3h4v3z"/>
  </g>
  <rect width="400" height="200" fill="url(#g)" opacity="0.3"/>
  <rect x="0" y="120" width="400" height="80" fill="#1a1005" opacity="0.6"/>
    <text x="200" y="145" text-anchor="middle" font-family="Rajdhani, sans-serif" font-size="22" font-weight="600" fill="#fff" opacity="0.95">Tavern &</text>
    <text x="200" y="173" text-anchor="middle" font-family="Rajdhani, sans-serif" font-size="22" font-weight="600" fill="#fff" opacity="0.95">Inn Maps</text>
</svg>